PathFileType	4	(x/y/z)	S04_BK_Cal.trc
DataRate	CameraRate	NumFrames	NumMarkers	Units	OrigDataRate	OrigDataStartFrame	OrigNumFrames
240	240	10	51	mm	240	1201	2400
Frame#	Time	Sternum			R.Acromium			L.Acromium			Top.Head			R.ASIS			L.ASIS			R.PSIS			L.PSIS			R.Great.Tro			L.Great.Tro			R.Iliac.Crest			L.Iliac.Crest			V.Sacral			R.Thigh.Upper.Post			R.Thigh.Lower.Ant			R.Thigh.Lower.Post			R.Thigh.Upper.Ant			R.Knee.Lat			R.Knee.Med			R.Shank.Upper.Post			R.Shank.Lower.Ant			R.Shank.Lower.Post			R.Shank.Upper.Ant			R.Ankle.Lat			R.Ankle.Med			R.Heel.Upper			R.Heel.Med			R.Heel.Lat			R.Toe.Lat			R.Toe.Med			R.Toe.Tip			L.Thigh.Upper.Post			L.Thigh.Lower.Ant			L.Thigh.Lower.Post			L.Thigh.Upper.Ant			L.Knee.Lat			L.Knee.Med			L.Shank.Upper.Post			L.Shank.Lower.Ant			L.Shank.Lower.Post			L.Shank.Upper.Ant			L.Ankle.Lat			L.Ankle.Med			L.Heel.Upper			L.Heel.Med			L.Heel.Lat			L.Toe.Lat			L.Toe.Med			L.Toe.Tip			Cervical.Spine			Back			
		X1	Y1	Z1	X2	Y2	Z2	X3	Y3	Z3	X4	Y4	Z4	X5	Y5	Z5	X6	Y6	Z6	X7	Y7	Z7	X8	Y8	Z8	X9	Y9	Z9	X10	Y10	Z10	X11	Y11	Z11	X12	Y12	Z12	X13	Y13	Z13	X14	Y14	Z14	X15	Y15	Z15	X16	Y16	Z16	X17	Y17	Z17	X18	Y18	Z18	X19	Y19	Z19	X20	Y20	Z20	X21	Y21	Z21	X22	Y22	Z22	X23	Y23	Z23	X24	Y24	Z24	X25	Y25	Z25	X26	Y26	Z26	X27	Y27	Z27	X28	Y28	Z28	X29	Y29	Z29	X30	Y30	Z30	X31	Y31	Z31	X32	Y32	Z32	X33	Y33	Z33	X34	Y34	Z34	X35	Y35	Z35	X36	Y36	Z36	X37	Y37	Z37	X38	Y38	Z38	X39	Y39	Z39	X40	Y40	Z40	X41	Y41	Z41	X42	Y42	Z42	X43	Y43	Z43	X44	Y44	Z44	X45	Y45	Z45	X46	Y46	Z46	X47	Y47	Z47	X48	Y48	Z48	X49	Y49	Z49	X50	Y50	Z50	X51	Y51	Z51	

1201	5	341.37	1221.1	294.38	218.01	1450.8	474.88	196.32	1440.3	129	216.86	1771	292.04	310.58	937.35	433.89	310.65	952	185.64	97.492	976.91	335.83	104.14	980.24	252.76	223.55	864.83	500.76	198.8	869.69	116.03	231.43	1030.6	475.72	214	1035.7	139.34	79.63	936.43	294.34	299.54	615.38	513.72	400.23	561.5	491.39	330.24	529.9	502.7	370.64	667.78	504.25	369.36	470.43	496.41	357.64	459.07	368.95	229.81	286.98	505.57	264.05	188.18	463.92	205.11	221.06	492.83	287.54	255.14	485.43	166.41	110.36	478.3	190.42	115.6	388.95	97.744	75.488	421.63	108.04	44.704	392.27	98.448	44.281	456.95	263.66	39.785	519.33	311.26	39.607	402.97	369.22	56.365	457.06	256.68	635.37	105.43	366.02	573.81	90.469	297.67	555.37	107.6	321.06	652.81	87.126	363.51	479.41	100.82	379.39	457.1	224.78	228.83	342.59	93.905	265.47	238.16	86.984	208.72	267.5	94.906	285.5	312.07	84.231	179.09	104.83	97.838	187.3	110.96	192	101.36	73.177	141.38	108.65	47.485	174.87	105.16	46.2	112.95	287.98	42.599	69.679	321.6	47.921	184.71	377.74	57.257	133.96	164.8	1494	306.48	84.708	1238.7	289.08
1202	5.0042	341.37	1221.1	294.39	218	1450.8	474.88	196.31	1440.3	129.01	216.82	1771	292.04	310.57	937.35	433.9	310.65	952	185.65	97.485	976.91	335.83	104.14	980.23	252.76	223.54	864.82	500.77	198.8	869.68	116.03	231.42	1030.6	475.73	213.99	1035.7	139.34	79.625	936.43	294.35	299.54	615.38	513.72	400.22	561.5	491.4	330.24	529.89	502.7	370.64	667.78	504.25	369.35	470.43	496.42	357.64	459.07	368.95	229.81	286.98	505.57	264.05	188.18	463.92	205.11	221.06	492.83	287.54	255.14	485.43	166.41	110.36	478.3	190.42	115.6	388.96	97.744	75.487	421.63	108.05	44.698	392.28	98.448	44.28	456.95	263.66	39.785	519.33	311.26	39.607	402.97	369.22	56.365	457.06	256.68	635.37	105.44	366.02	573.8	90.478	297.67	555.37	107.6	321.06	652.81	87.134	363.51	479.4	100.83	379.4	457.1	224.78	228.82	342.6	93.906	265.47	238.16	86.987	208.72	267.5	94.909	285.5	312.07	84.236	179.1	104.82	97.837	187.31	110.96	192	101.36	73.175	141.38	108.65	47.485	174.87	105.16	46.197	112.95	287.98	42.599	69.679	321.6	47.922	184.71	377.73	57.26	133.96	164.79	1494	306.48	84.704	1238.7	289.08
1203	5.0083	341.36	1221.1	294.39	217.99	1450.8	474.88	196.3	1440.3	129.01	216.78	1771	292.05	310.56	937.36	433.9	310.64	952	185.66	97.479	976.91	335.84	104.13	980.23	252.77	223.54	864.82	500.78	198.8	869.68	116.04	231.42	1030.6	475.74	213.99	1035.7	139.35	79.62	936.43	294.35	299.53	615.38	513.73	400.22	561.5	491.41	330.23	529.89	502.71	370.63	667.78	504.26	369.35	470.43	496.42	357.64	459.07	368.96	229.81	286.98	505.57	264.05	188.18	463.92	205.11	221.06	492.83	287.54	255.13	485.43	166.41	110.36	478.3	190.42	115.6	388.96	97.744	75.486	421.63	108.06	44.691	392.29	98.447	44.279	456.95	263.66	39.786	519.33	311.26	39.607	402.97	369.22	56.365	457.06	256.67	635.37	105.44	366.02	573.8	90.488	297.67	555.36	107.61	321.06	652.81	87.143	363.51	479.4	100.84	379.4	457.1	224.79	228.82	342.6	93.908	265.46	238.16	86.99	208.71	267.5	94.911	285.5	312.07	84.24	179.1	104.82	97.836	187.32	110.95	192	101.36	73.174	141.38	108.65	47.485	174.87	105.16	46.193	112.95	287.98	42.599	69.68	321.6	47.924	184.71	377.73	57.263	133.96	164.78	1494	306.49	84.701	1238.7	289.09
1204	5.0125	341.36	1221.1	294.39	217.98	1450.8	474.89	196.3	1440.3	129.02	216.74	1771	292.06	310.56	937.36	433.91	310.64	951.99	185.67	97.473	976.9	335.84	104.13	980.22	252.77	223.53	864.82	500.79	198.79	869.68	116.04	231.41	1030.6	475.74	213.99	1035.7	139.36	79.615	936.43	294.36	299.53	615.38	513.73	400.21	561.49	491.41	330.23	529.89	502.71	370.62	667.78	504.26	369.35	470.43	496.43	357.64	459.07	368.96	229.81	286.98	505.57	264.05	188.18	463.92	205.11	221.06	492.83	287.54	255.13	485.43	166.41	110.36	478.3	190.42	115.6	388.96	97.744	75.485	421.63	108.07	44.685	392.3	98.447	44.279	456.95	263.66	39.787	519.33	311.26	39.608	402.97	369.22	56.365	457.06	256.67	635.36	105.45	366.02	573.8	90.498	297.67	555.36	107.62	321.06	652.81	87.151	363.52	479.4	100.84	379.4	457.1	224.8	228.82	342.6	93.91	265.46	238.16	86.993	208.71	267.5	94.913	285.5	312.07	84.245	179.11	104.82	97.835	187.32	110.95	192	101.35	73.172	141.38	108.64	47.485	174.87	105.16	46.19	112.95	287.98	42.599	69.68	321.6	47.926	184.71	377.73	57.265	133.96	164.77	1494	306.5	84.697	1238.7	289.09
1205	5.0167	341.36	1221.1	294.4	217.97	1450.8	474.89	196.29	1440.3	129.02	216.7	1771	292.07	310.55	937.36	433.92	310.64	951.99	185.67	97.467	976.9	335.84	104.13	980.22	252.78	223.53	864.82	500.8	198.79	869.68	116.05	231.4	1030.6	475.75	213.98	1035.7	139.36	79.61	936.42	294.36	299.53	615.37	513.74	400.21	561.49	491.42	330.23	529.89	502.71	370.62	667.78	504.27	369.35	470.43	496.43	357.64	459.07	368.96	229.81	286.98	505.57	264.05	188.18	463.92	205.11	221.06	492.84	287.54	255.13	485.43	166.41	110.36	478.31	190.42	115.6	388.96	97.744	75.484	421.63	108.08	44.68	392.3	98.446	44.278	456.95	263.66	39.788	519.34	311.26	39.608	402.97	369.22	56.365	457.06	256.68	635.36	105.46	366.02	573.8	90.508	297.67	555.36	107.62	321.06	652.8	87.159	363.52	479.4	100.85	379.41	457.1	224.81	228.82	342.6	93.912	265.46	238.15	86.996	208.71	267.5	94.915	285.5	312.06	84.249	179.11	104.82	97.834	187.33	110.95	192	101.35	73.171	141.38	108.64	47.485	174.87	105.16	46.186	112.95	287.98	42.599	69.681	321.59	47.927	184.71	377.73	57.268	133.96	164.76	1494	306.5	84.694	1238.7	289.09
1206	5.0208	341.36	1221.1	294.4	217.96	1450.8	474.9	196.28	1440.3	129.03	216.66	1771	292.08	310.54	937.36	433.92	310.63	951.99	185.68	97.461	976.89	335.85	104.12	980.21	252.78	223.52	864.82	500.81	198.79	869.67	116.05	231.39	1030.6	475.75	213.98	1035.7	139.37	79.606	936.42	294.36	299.52	615.37	513.75	400.2	561.48	491.43	330.23	529.88	502.71	370.61	667.77	504.27	369.35	470.43	496.44	357.64	459.07	368.97	229.81	286.98	505.57	264.05	188.18	463.92	205.1	221.06	492.84	287.54	255.13	485.43	166.41	110.36	478.31	190.42	115.6	388.96	97.743	75.483	421.63	108.08	44.676	392.31	98.446	44.277	456.95	263.66	39.789	519.34	311.26	39.609	402.97	369.22	56.366	457.06	256.68	635.36	105.46	366.02	573.79	90.518	297.67	555.35	107.63	321.06	652.8	87.167	363.52	479.39	100.86	379.41	457.1	224.81	228.82	342.6	93.914	265.46	238.15	86.999	208.71	267.5	94.917	285.5	312.06	84.253	179.12	104.81	97.833	187.33	110.94	192	101.35	73.169	141.38	108.64	47.485	174.87	105.16	46.183	112.95	287.98	42.599	69.681	321.59	47.929	184.71	377.73	57.271	133.96	164.75	1494	306.51	84.691	1238.6	289.1
1207	5.025	341.36	1221.1	294.41	217.95	1450.8	474.9	196.27	1440.3	129.03	216.62	1771	292.09	310.53	937.37	433.93	310.63	951.98	185.69	97.455	976.89	335.85	104.12	980.21	252.78	223.52	864.82	500.82	198.79	869.67	116.06	231.39	1030.6	475.76	213.97	1035.7	139.37	79.601	936.41	294.37	299.52	615.37	513.75	400.2	561.48	491.43	330.22	529.88	502.71	370.61	667.77	504.28	369.35	470.42	496.44	357.64	459.07	368.97	229.8	286.98	505.57	264.05	188.18	463.93	205.1	221.06	492.84	287.54	255.13	485.43	166.41	110.36	478.31	190.42	115.6	388.96	97.743	75.483	421.63	108.09	44.673	392.31	98.445	44.276	456.95	263.66	39.79	519.34	311.26	39.609	402.97	369.22	56.366	457.06	256.68	635.36	105.47	366.02	573.79	90.527	297.67	555.35	107.64	321.06	652.8	87.175	363.52	479.39	100.86	379.42	457.1	224.82	228.82	342.6	93.916	265.46	238.15	87.002	208.71	267.5	94.918	285.5	312.06	84.257	179.12	104.81	97.832	187.34	110.94	192	101.35	73.168	141.38	108.64	47.484	174.87	105.16	46.18	112.95	287.98	42.6	69.682	321.59	47.931	184.7	377.73	57.273	133.96	164.74	1494	306.51	84.688	1238.6	289.1
1208	5.0292	341.36	1221.1	294.41	217.94	1450.8	474.91	196.26	1440.3	129.03	216.58	1771	292.09	310.53	937.37	433.93	310.63	951.98	185.69	97.45	976.89	335.86	104.11	980.2	252.79	223.51	864.81	500.83	198.79	869.66	116.06	231.38	1030.6	475.76	213.97	1035.7	139.38	79.598	936.41	294.37	299.52	615.37	513.76	400.19	561.47	491.44	330.22	529.87	502.72	370.6	667.76	504.29	369.35	470.42	496.44	357.64	459.07	368.97	229.8	286.97	505.58	264.05	188.18	463.93	205.1	221.06	492.84	287.54	255.13	485.44	166.41	110.35	478.31	190.41	115.6	388.96	97.743	75.483	421.63	108.09	44.672	392.31	98.445	44.275	456.95	263.66	39.791	519.34	311.26	39.61	402.97	369.22	56.367	457.06	256.68	635.35	105.47	366.03	573.79	90.535	297.67	555.35	107.64	321.07	652.8	87.182	363.52	479.39	100.87	379.42	457.1	224.83	228.82	342.6	93.919	265.46	238.15	87.004	208.71	267.5	94.92	285.5	312.06	84.261	179.12	104.81	97.832	187.34	110.93	192	101.35	73.166	141.38	108.64	47.484	174.87	105.16	46.176	112.96	287.98	42.6	69.682	321.59	47.932	184.7	377.73	57.275	133.96	164.73	1494	306.52	84.684	1238.6	289.11
1209	5.0333	341.36	1221.1	294.41	217.94	1450.8	474.91	196.26	1440.3	129.04	216.55	1771	292.1	310.52	937.37	433.94	310.63	951.98	185.7	97.445	976.88	335.86	104.11	980.2	252.79	223.51	864.81	500.84	198.79	869.66	116.07	231.37	1030.6	475.77	213.96	1035.7	139.39	79.594	936.41	294.38	299.52	615.37	513.77	400.19	561.47	491.44	330.22	529.87	502.72	370.6	667.76	504.29	369.35	470.42	496.45	357.65	459.07	368.97	229.8	286.97	505.58	264.05	188.18	463.93	205.1	221.06	492.84	287.54	255.12	485.44	166.41	110.35	478.31	190.41	115.6	388.96	97.742	75.482	421.63	108.08	44.672	392.31	98.445	44.273	456.95	263.66	39.792	519.34	311.26	39.611	402.97	369.22	56.367	457.06	256.68	635.35	105.48	366.03	573.79	90.543	297.68	555.34	107.65	321.07	652.79	87.189	363.52	479.39	100.87	379.42	457.1	224.84	228.82	342.6	93.921	265.46	238.15	87.007	208.71	267.5	94.921	285.5	312.06	84.264	179.13	104.81	97.831	187.35	110.93	192	101.35	73.165	141.38	108.64	47.484	174.87	105.16	46.173	112.96	287.98	42.6	69.683	321.59	47.934	184.7	377.73	57.277	133.96	164.72	1494	306.52	84.681	1238.6	289.11
1210	5.0375	341.36	1221.1	294.42	217.93	1450.8	474.92	196.25	1440.3	129.04	216.51	1771	292.11	310.51	937.37	433.94	310.63	951.98	185.7	97.44	976.88	335.86	104.11	980.19	252.79	223.51	864.81	500.84	198.79	869.66	116.07	231.36	1030.6	475.77	213.96	1035.7	139.39	79.591	936.4	294.38	299.52	615.36	513.77	400.19	561.46	491.45	330.22	529.87	502.72	370.6	667.76	504.3	369.35	470.42	496.45	357.65	459.07	368.98	229.8	286.97	505.58	264.05	188.18	463.93	205.1	221.06	492.84	287.54	255.12	485.44	166.41	110.35	478.31	190.41	115.6	388.96	97.742	75.482	421.63	108.08	44.674	392.3	98.445	44.272	456.95	263.66	39.794	519.34	311.25	39.612	402.97	369.22	56.367	457.06	256.68	635.35	105.48	366.03	573.79	90.55	297.68	555.34	107.65	321.07	652.79	87.195	363.53	479.38	100.88	379.43	457.1	224.84	228.82	342.59	93.924	265.46	238.15	87.009	208.71	267.49	94.922	285.5	312.06	84.267	179.13	104.8	97.83	187.36	110.92	192	101.35	73.164	141.38	108.64	47.484	174.87	105.15	46.17	112.96	287.98	42.601	69.684	321.59	47.935	184.7	377.73	57.279	133.96	164.72	1494	306.53	84.677	1238.6	289.11
